<mxfile host="app.diagrams.net" agent="Mozilla/5.0 (Windows NT 10.0; Win64; x64) AppleWebKit/537.36 (KHTML, like Gecko) Chrome/130.0.0.0 Safari/537.36" version="24.8.3">
  <diagram name="第 1 页" id="o6YkjQdDF1RqOcQpJtPp">
    <mxGraphModel dx="1434" dy="746" grid="1" gridSize="10" guides="1" tooltips="1" connect="1" arrows="1" fold="1" page="1" pageScale="1" pageWidth="827" pageHeight="1169" background="none" math="0" shadow="0">
      <root>
        <mxCell id="0" />
        <mxCell id="1" parent="0" />
        <mxCell id="XUHPIvYPxtX43MUzcUfK-14" style="edgeStyle=orthogonalEdgeStyle;rounded=0;orthogonalLoop=1;jettySize=auto;html=1;" parent="1" source="XUHPIvYPxtX43MUzcUfK-6" target="XUHPIvYPxtX43MUzcUfK-7" edge="1">
          <mxGeometry relative="1" as="geometry" />
        </mxCell>
        <mxCell id="XUHPIvYPxtX43MUzcUfK-6" value="3d tiles数据获取" style="rounded=0;whiteSpace=wrap;html=1;" parent="1" vertex="1">
          <mxGeometry x="80" y="560" width="120" height="60" as="geometry" />
        </mxCell>
        <mxCell id="XUHPIvYPxtX43MUzcUfK-15" style="edgeStyle=orthogonalEdgeStyle;rounded=0;orthogonalLoop=1;jettySize=auto;html=1;entryX=0;entryY=0.5;entryDx=0;entryDy=0;" parent="1" source="XUHPIvYPxtX43MUzcUfK-7" target="XUHPIvYPxtX43MUzcUfK-8" edge="1">
          <mxGeometry relative="1" as="geometry" />
        </mxCell>
        <mxCell id="XUHPIvYPxtX43MUzcUfK-16" style="edgeStyle=orthogonalEdgeStyle;rounded=0;orthogonalLoop=1;jettySize=auto;html=1;exitX=1;exitY=0.5;exitDx=0;exitDy=0;entryX=0;entryY=0.5;entryDx=0;entryDy=0;" parent="1" source="XUHPIvYPxtX43MUzcUfK-7" target="XUHPIvYPxtX43MUzcUfK-13" edge="1">
          <mxGeometry relative="1" as="geometry" />
        </mxCell>
        <mxCell id="XUHPIvYPxtX43MUzcUfK-7" value="3dtiles数据加载" style="rounded=0;whiteSpace=wrap;html=1;" parent="1" vertex="1">
          <mxGeometry x="260" y="560" width="120" height="60" as="geometry" />
        </mxCell>
        <mxCell id="XUHPIvYPxtX43MUzcUfK-8" value="three-loader-3dtiles" style="rounded=0;whiteSpace=wrap;html=1;" parent="1" vertex="1">
          <mxGeometry x="450" y="510" width="120" height="60" as="geometry" />
        </mxCell>
        <mxCell id="XUHPIvYPxtX43MUzcUfK-12" style="edgeStyle=orthogonalEdgeStyle;rounded=0;orthogonalLoop=1;jettySize=auto;html=1;entryX=0;entryY=0.5;entryDx=0;entryDy=0;" parent="1" source="XUHPIvYPxtX43MUzcUfK-9" target="XUHPIvYPxtX43MUzcUfK-11" edge="1">
          <mxGeometry relative="1" as="geometry" />
        </mxCell>
        <mxCell id="XUHPIvYPxtX43MUzcUfK-9" value="qgis软件使用" style="rounded=0;whiteSpace=wrap;html=1;" parent="1" vertex="1">
          <mxGeometry x="70" y="260" width="120" height="60" as="geometry" />
        </mxCell>
        <mxCell id="XUHPIvYPxtX43MUzcUfK-11" value="qgis" style="rounded=0;whiteSpace=wrap;html=1;" parent="1" vertex="1">
          <mxGeometry x="300" y="260" width="120" height="60" as="geometry" />
        </mxCell>
        <mxCell id="XUHPIvYPxtX43MUzcUfK-13" value="3DTilesRendererJS" style="rounded=0;whiteSpace=wrap;html=1;" parent="1" vertex="1">
          <mxGeometry x="450" y="600" width="120" height="60" as="geometry" />
        </mxCell>
        <mxCell id="gegNPiZm02WqxOPp7qKU-5" style="edgeStyle=orthogonalEdgeStyle;rounded=0;orthogonalLoop=1;jettySize=auto;html=1;entryX=0;entryY=0.5;entryDx=0;entryDy=0;" parent="1" source="gegNPiZm02WqxOPp7qKU-1" target="gegNPiZm02WqxOPp7qKU-2" edge="1">
          <mxGeometry relative="1" as="geometry" />
        </mxCell>
        <mxCell id="gegNPiZm02WqxOPp7qKU-1" value="八叉树" style="rounded=0;whiteSpace=wrap;html=1;" parent="1" vertex="1">
          <mxGeometry x="590" y="1470" width="120" height="60" as="geometry" />
        </mxCell>
        <mxCell id="gegNPiZm02WqxOPp7qKU-2" value="数据结构" style="rounded=0;whiteSpace=wrap;html=1;" parent="1" vertex="1">
          <mxGeometry x="840" y="1470" width="120" height="60" as="geometry" />
        </mxCell>
        <mxCell id="gegNPiZm02WqxOPp7qKU-4" style="edgeStyle=orthogonalEdgeStyle;rounded=0;orthogonalLoop=1;jettySize=auto;html=1;" parent="1" source="gegNPiZm02WqxOPp7qKU-3" target="gegNPiZm02WqxOPp7qKU-1" edge="1">
          <mxGeometry relative="1" as="geometry" />
        </mxCell>
        <mxCell id="gegNPiZm02WqxOPp7qKU-3" value="碰撞检测" style="rounded=0;whiteSpace=wrap;html=1;" parent="1" vertex="1">
          <mxGeometry x="360" y="1470" width="120" height="60" as="geometry" />
        </mxCell>
        <mxCell id="gegNPiZm02WqxOPp7qKU-7" style="edgeStyle=orthogonalEdgeStyle;rounded=0;orthogonalLoop=1;jettySize=auto;html=1;" parent="1" source="gegNPiZm02WqxOPp7qKU-6" target="gegNPiZm02WqxOPp7qKU-3" edge="1">
          <mxGeometry relative="1" as="geometry" />
        </mxCell>
        <mxCell id="gegNPiZm02WqxOPp7qKU-6" value="场景漫游" style="rounded=0;whiteSpace=wrap;html=1;" parent="1" vertex="1">
          <mxGeometry x="120" y="1470" width="110" height="60" as="geometry" />
        </mxCell>
        <mxCell id="rZd4Q6Lg-qDR5uAK9qM4-5" style="edgeStyle=orthogonalEdgeStyle;rounded=0;orthogonalLoop=1;jettySize=auto;html=1;entryX=0;entryY=0.5;entryDx=0;entryDy=0;" parent="1" source="rZd4Q6Lg-qDR5uAK9qM4-1" target="rZd4Q6Lg-qDR5uAK9qM4-2" edge="1">
          <mxGeometry relative="1" as="geometry" />
        </mxCell>
        <mxCell id="rZd4Q6Lg-qDR5uAK9qM4-6" style="edgeStyle=orthogonalEdgeStyle;rounded=0;orthogonalLoop=1;jettySize=auto;html=1;entryX=0;entryY=0.5;entryDx=0;entryDy=0;" parent="1" source="rZd4Q6Lg-qDR5uAK9qM4-1" target="rZd4Q6Lg-qDR5uAK9qM4-3" edge="1">
          <mxGeometry relative="1" as="geometry" />
        </mxCell>
        <mxCell id="rZd4Q6Lg-qDR5uAK9qM4-7" style="edgeStyle=orthogonalEdgeStyle;rounded=0;orthogonalLoop=1;jettySize=auto;html=1;entryX=0;entryY=0.5;entryDx=0;entryDy=0;" parent="1" source="rZd4Q6Lg-qDR5uAK9qM4-1" target="rZd4Q6Lg-qDR5uAK9qM4-4" edge="1">
          <mxGeometry relative="1" as="geometry" />
        </mxCell>
        <mxCell id="rZd4Q6Lg-qDR5uAK9qM4-1" value="数学" style="rounded=0;whiteSpace=wrap;html=1;" parent="1" vertex="1">
          <mxGeometry x="560" y="110" width="120" height="60" as="geometry" />
        </mxCell>
        <mxCell id="rZd4Q6Lg-qDR5uAK9qM4-2" value="高等数学" style="rounded=0;whiteSpace=wrap;html=1;" parent="1" vertex="1">
          <mxGeometry x="730" y="20" width="120" height="60" as="geometry" />
        </mxCell>
        <mxCell id="rZd4Q6Lg-qDR5uAK9qM4-3" value="线性代数" style="rounded=0;whiteSpace=wrap;html=1;" parent="1" vertex="1">
          <mxGeometry x="900" y="110" width="120" height="60" as="geometry" />
        </mxCell>
        <mxCell id="rZd4Q6Lg-qDR5uAK9qM4-4" value="解析几何" style="rounded=0;whiteSpace=wrap;html=1;" parent="1" vertex="1">
          <mxGeometry x="820" y="210" width="120" height="60" as="geometry" />
        </mxCell>
        <mxCell id="BOs9fSYbCUu3QP43SSLh-3" style="edgeStyle=orthogonalEdgeStyle;rounded=0;orthogonalLoop=1;jettySize=auto;html=1;" parent="1" source="BOs9fSYbCUu3QP43SSLh-1" target="BOs9fSYbCUu3QP43SSLh-2" edge="1">
          <mxGeometry relative="1" as="geometry" />
        </mxCell>
        <mxCell id="BOs9fSYbCUu3QP43SSLh-9" style="edgeStyle=orthogonalEdgeStyle;rounded=0;orthogonalLoop=1;jettySize=auto;html=1;entryX=0;entryY=0.5;entryDx=0;entryDy=0;" parent="1" source="BOs9fSYbCUu3QP43SSLh-1" target="BOs9fSYbCUu3QP43SSLh-4" edge="1">
          <mxGeometry relative="1" as="geometry" />
        </mxCell>
        <mxCell id="BOs9fSYbCUu3QP43SSLh-1" value="物理引擎" style="rounded=0;whiteSpace=wrap;html=1;" parent="1" vertex="1">
          <mxGeometry x="330" y="880" width="120" height="60" as="geometry" />
        </mxCell>
        <mxCell id="BOs9fSYbCUu3QP43SSLh-2" value="canoon" style="rounded=0;whiteSpace=wrap;html=1;" parent="1" vertex="1">
          <mxGeometry x="570" y="880" width="120" height="60" as="geometry" />
        </mxCell>
        <mxCell id="BOs9fSYbCUu3QP43SSLh-4" value="webwork" style="rounded=0;whiteSpace=wrap;html=1;" parent="1" vertex="1">
          <mxGeometry x="560" y="1070" width="120" height="60" as="geometry" />
        </mxCell>
        <mxCell id="_oio0iws3nPVt2thrT7--4" style="edgeStyle=orthogonalEdgeStyle;rounded=0;orthogonalLoop=1;jettySize=auto;html=1;entryX=0;entryY=0.5;entryDx=0;entryDy=0;" parent="1" source="_oio0iws3nPVt2thrT7--1" target="_oio0iws3nPVt2thrT7--3" edge="1">
          <mxGeometry relative="1" as="geometry" />
        </mxCell>
        <mxCell id="_oio0iws3nPVt2thrT7--5" style="edgeStyle=orthogonalEdgeStyle;rounded=0;orthogonalLoop=1;jettySize=auto;html=1;" parent="1" source="_oio0iws3nPVt2thrT7--1" target="_oio0iws3nPVt2thrT7--2" edge="1">
          <mxGeometry relative="1" as="geometry" />
        </mxCell>
        <mxCell id="_oio0iws3nPVt2thrT7--1" value="深度测试-碰撞检测" style="whiteSpace=wrap;html=1;" parent="1" vertex="1">
          <mxGeometry x="140" y="1860" width="120" height="60" as="geometry" />
        </mxCell>
        <mxCell id="_oio0iws3nPVt2thrT7--2" value="AI例子--postprocessing" style="whiteSpace=wrap;html=1;" parent="1" vertex="1">
          <mxGeometry x="440" y="1880" width="120" height="60" as="geometry" />
        </mxCell>
        <mxCell id="_oio0iws3nPVt2thrT7--3" value="webglrendertarget" style="whiteSpace=wrap;html=1;" parent="1" vertex="1">
          <mxGeometry x="450" y="1790" width="120" height="60" as="geometry" />
        </mxCell>
        <mxCell id="_oio0iws3nPVt2thrT7--6" value="threejs--math--点到面的距离" style="whiteSpace=wrap;html=1;" parent="1" vertex="1">
          <mxGeometry x="150" y="1600" width="120" height="60" as="geometry" />
        </mxCell>
        <mxCell id="_oio0iws3nPVt2thrT7--7" value="cannonjs---3dtiles动态场景碰撞检查" style="whiteSpace=wrap;html=1;" parent="1" vertex="1">
          <mxGeometry x="140" y="1694" width="120" height="60" as="geometry" />
        </mxCell>
        <mxCell id="V9corl40bEExTPDlHfBx-2" value="性能优化:" style="whiteSpace=wrap;html=1;" vertex="1" parent="1">
          <mxGeometry x="1270" y="520" width="120" height="60" as="geometry" />
        </mxCell>
        <mxCell id="V9corl40bEExTPDlHfBx-5" value="" style="group" vertex="1" connectable="0" parent="1">
          <mxGeometry x="1180" y="840" width="300" height="300" as="geometry" />
        </mxCell>
        <mxCell id="V9corl40bEExTPDlHfBx-3" value="" style="whiteSpace=wrap;html=1;" vertex="1" parent="V9corl40bEExTPDlHfBx-5">
          <mxGeometry y="30" width="300" height="270" as="geometry" />
        </mxCell>
        <mxCell id="BOs9fSYbCUu3QP43SSLh-6" value="cdn" style="rounded=0;whiteSpace=wrap;html=1;" parent="V9corl40bEExTPDlHfBx-5" vertex="1">
          <mxGeometry x="90" y="170" width="120" height="60" as="geometry" />
        </mxCell>
        <mxCell id="BOs9fSYbCUu3QP43SSLh-5" value="indexdb" style="rounded=0;whiteSpace=wrap;html=1;" parent="V9corl40bEExTPDlHfBx-5" vertex="1">
          <mxGeometry x="90" y="100" width="120" height="60" as="geometry" />
        </mxCell>
        <mxCell id="V9corl40bEExTPDlHfBx-4" value="缓存" style="text;html=1;align=center;verticalAlign=middle;resizable=0;points=[];autosize=1;strokeColor=none;fillColor=none;" vertex="1" parent="V9corl40bEExTPDlHfBx-5">
          <mxGeometry x="125" width="50" height="30" as="geometry" />
        </mxCell>
        <mxCell id="V9corl40bEExTPDlHfBx-6" style="edgeStyle=orthogonalEdgeStyle;rounded=0;orthogonalLoop=1;jettySize=auto;html=1;entryX=0.48;entryY=0.033;entryDx=0;entryDy=0;entryPerimeter=0;" edge="1" parent="1" source="V9corl40bEExTPDlHfBx-2" target="V9corl40bEExTPDlHfBx-4">
          <mxGeometry relative="1" as="geometry" />
        </mxCell>
      </root>
    </mxGraphModel>
  </diagram>
</mxfile>
